<svg width="24" height="24" viewBox="0 0 24 24" fill="none" xmlns="http://www.w3.org/2000/svg">
    <path fill-rule="evenodd" clip-rule="evenodd" d="M8 5C6.89543 5 6 5.89543 6 7V21C6 22.1046 6.89543 23 8 23H19C20.1046 23 21 22.1046 21 21V7C21 5.89543 20.1046 5 19 5H8ZM9 7C8.44772 7 8 7.44772 8 8V20C8 20.5523 8.44772 21 9 21H18C18.5523 21 19 20.5523 19 20V8C19 7.44772 18.5523 7 18 7H9Z" fill="#8C8695"/>
    <path d="M15 1H4C2.9 1 2 1.9 2 3V16C2 16.55 2.45 17 3 17C3.55 17 4 16.55 4 16V4C4 3.45 4.45 3 5 3H15C15.55 3 16 2.55 16 2C16 1.45 15.55 1 15 1Z" fill="#8C8695"/>
</svg>
